<svg width="12" height="14" xmlns="http://www.w3.org/2000/svg" fill="none">

 <g>
  <title>Layer 1</title>
  <path id="svg_1" fill="#000000" d="m0.93331,13.3c-0.0014,0.1839 0.07021,0.3609 0.19914,0.4922c0.12892,0.1312 0.30463,0.2059 0.48858,0.2078l7.95789,0c0.18395,-0.0019 0.35966,-0.0766 0.48858,-0.2078c0.1289,-0.1313 0.2005,-0.3083 0.1991,-0.4922l0,-9.33336l-9.33329,0l0,9.33336zm0.93333,-8.40002l7.46667,0l0,8.16662l-7.46667,0l0,-8.16662z"/>
  <path id="svg_2" fill="#000000" d="m3.96666,5.83331l-0.93333,0l0,5.83329l0.93333,0l0,-5.83329z"/>
  <path id="svg_3" fill="#000000" d="m6.06663,5.88693l-0.93333,0l0,5.83329l0.93333,0l0,-5.83329z"/>
  <path id="svg_4" fill="#000000" d="m8.16667,5.83331l-0.93333,0l0,5.83329l0.93333,0l0,-5.83329z"/>
  <path id="svg_5" fill="#000000" d="m7.7,2.1l0,-1.4c0,-0.39253 -0.27673,-0.7 -0.63,-0.7l-2.94,0c-0.35327,0 -0.63,0.30747 -0.63,0.7l0,1.4l-3.5,0l0,0.93333l11.2,0l0,-0.93333l-3.5,0zm-3.26667,-1.16667l2.33334,0l0,1.16667l-2.33334,0l0,-1.16667z"/>
 </g>
</svg>