<svg width="50" height="50" xmlns="http://www.w3.org/2000/svg" enable-background="new 0 0 50 50">

 <g>
  <title>Layer 1</title>
  <path fill="#ffffff" id="svg_1" d="m25,34c-5,0 -9,-4 -9,-9s4,-9 9,-9s9,4 9,9s-4,9 -9,9zm0,-16c-3.9,0 -7,3.1 -7,7s3.1,7 7,7s7,-3.1 7,-7s-3.1,-7 -7,-7z"/>
  <path fill="#ffffff" id="svg_2" d="m27.7,44l-5.4,0l-1.5,-4.6c-1,-0.3 -2,-0.7 -2.9,-1.2l-4.4,2.2l-3.8,-3.8l2.2,-4.4c-0.5,-0.9 -0.9,-1.9 -1.2,-2.9l-4.7,-1.6l0,-5.4l4.6,-1.5c0.3,-1 0.7,-2 1.2,-2.9l-2.2,-4.4l3.8,-3.8l4.4,2.2c0.9,-0.5 1.9,-0.9 2.9,-1.2l1.6,-4.7l5.4,0l1.5,4.6c1,0.3 2,0.7 2.9,1.2l4.4,-2.2l3.8,3.8l-2.2,4.4c0.5,0.9 0.9,1.9 1.2,2.9l4.6,1.5l0,5.4l-4.6,1.5c-0.3,1 -0.7,2 -1.2,2.9l2.2,4.4l-3.8,3.8l-4.4,-2.2c-0.9,0.5 -1.9,0.9 -2.9,1.2l-1.5,4.8zm-4,-2l2.6,0l1.4,-4.3l0.5,-0.1c1.2,-0.3 2.3,-0.8 3.4,-1.4l0.5,-0.3l4,2l1.8,-1.8l-2,-4l0.3,-0.5c0.6,-1 1.1,-2.2 1.4,-3.4l0.1,-0.5l4.3,-1.4l0,-2.6l-4.3,-1.4l-0.1,-0.5c-0.3,-1.2 -0.8,-2.3 -1.4,-3.4l-0.3,-0.5l2,-4l-1.8,-1.8l-4,2l-0.5,-0.3c-1.1,-0.6 -2.2,-1.1 -3.4,-1.4l-0.5,-0.1l-1.4,-4.3l-2.6,0l-1.4,4.3l-0.5,0.1c-1.2,0.3 -2.3,0.8 -3.4,1.4l-0.5,0.3l-4,-2l-1.8,1.8l2,4l-0.3,0.5c-0.6,1 -1.1,2.2 -1.4,3.4l-0.1,0.5l-4.3,1.4l0,2.6l4.3,1.4l0.1,0.5c0.3,1.2 0.8,2.3 1.4,3.4l0.3,0.5l-2,4l1.8,1.8l4,-2l0.5,0.3c1.1,0.6 2.2,1.1 3.4,1.4l0.5,0.1l1.4,4.3z"/>
 </g>
</svg>